name C:/MyDriveSym/Projects/mobilecap/Data\Session20210903_0002\mocap\ForceDataProcessed\walking3_forces.mot
datacolumns 19
datarows 22
range 0.00000000 0.01050000
endheader 
time	R_ground_force_vx	R_ground_force_vy	R_ground_force_vz	R_ground_force_px	R_ground_force_py	R_ground_force_pz	R_ground_torque_x	R_ground_torque_y	R_ground_torque_z	L_ground_force_vx	L_ground_force_vy	L_ground_force_vz	L_ground_force_px	L_ground_force_py	L_ground_force_pz	L_ground_torque_x	L_ground_torque_y	L_ground_torque_z	
          0.00000000	          0.00000000	          0.00000000	          0.00000000	          0.04658300	          0.00000000	         -0.17513400	          0.00000000	          0.00000000	          0.00000000	          0.00000000	          0.00000000	          0.00000000	          0.71568700	          0.00000000	         -0.22751500	          0.00000000	          0.00000000	          0.00000000	
          0.00050000	          0.00000000	          0.00000000	          0.00000000	          0.04658300	          0.00000000	         -0.17513400	          0.00000000	          0.00000000	          0.00000000	          0.00000000	          0.00000000	          0.00000000	          0.71568700	          0.00000000	         -0.22751500	          0.00000000	          0.00000000	          0.00000000	
          0.00100000	          0.00000000	          0.00000000	          0.00000000	          0.04658300	          0.00000000	         -0.17513400	          0.00000000	          0.00000000	          0.00000000	          0.00000000	          0.00000000	          0.00000000	          0.71568700	          0.00000000	         -0.22751500	          0.00000000	          0.00000000	          0.00000000	
          0.00150000	          0.00000000	          0.00000000	          0.00000000	          0.04658300	          0.00000000	         -0.17513400	          0.00000000	          0.00000000	          0.00000000	          0.00000000	          0.00000000	          0.00000000	          0.71568700	          0.00000000	         -0.22751500	          0.00000000	          0.00000000	          0.00000000	
          0.00200000	          0.00000000	          0.00000000	          0.00000000	          0.04658300	          0.00000000	         -0.17513400	          0.00000000	          0.00000000	          0.00000000	          0.00000000	          0.00000000	          0.00000000	          0.71568700	          0.00000000	         -0.22751500	          0.00000000	          0.00000000	          0.00000000	
          0.00250000	          0.00000000	          0.00000000	          0.00000000	          0.04658300	          0.00000000	         -0.17513400	          0.00000000	          0.00000000	          0.00000000	          0.00000000	          0.00000000	          0.00000000	          0.71568700	          0.00000000	         -0.22751500	          0.00000000	          0.00000000	          0.00000000	
          0.00300000	          0.00000000	          0.00000000	          0.00000000	          0.04658300	          0.00000000	         -0.17513400	          0.00000000	          0.00000000	          0.00000000	          0.00000000	          0.00000000	          0.00000000	          0.71568700	          0.00000000	         -0.22751500	          0.00000000	          0.00000000	          0.00000000	
          0.00350000	          0.00000000	          0.00000000	          0.00000000	          0.04658300	          0.00000000	         -0.17513400	          0.00000000	          0.00000000	          0.00000000	          0.00000000	          0.00000000	          0.00000000	          0.71568700	          0.00000000	         -0.22751500	          0.00000000	          0.00000000	          0.00000000	
          0.00400000	          0.00000000	          0.00000000	          0.00000000	          0.04658300	          0.00000000	         -0.17513400	          0.00000000	          0.00000000	          0.00000000	          0.00000000	          0.00000000	          0.00000000	          0.71568700	          0.00000000	         -0.22751500	          0.00000000	          0.00000000	          0.00000000	
          0.00450000	          0.00000000	          0.00000000	          0.00000000	          0.04658300	          0.00000000	         -0.17513400	          0.00000000	          0.00000000	          0.00000000	          0.00000000	          0.00000000	          0.00000000	          0.71568700	          0.00000000	         -0.22751500	          0.00000000	          0.00000000	          0.00000000	
          0.00500000	          0.00000000	          0.00000000	          0.00000000	          0.04658300	          0.00000000	         -0.17513400	          0.00000000	          0.00000000	          0.00000000	          0.00000000	          0.00000000	          0.00000000	          0.71568700	          0.00000000	         -0.22751500	          0.00000000	          0.00000000	          0.00000000	
          0.00550000	          0.00000000	          0.00000000	          0.00000000	          0.04658300	          0.00000000	         -0.17513400	          0.00000000	          0.00000000	          0.00000000	          0.00000000	          0.00000000	          0.00000000	          0.71568700	          0.00000000	         -0.22751500	          0.00000000	          0.00000000	          0.00000000	
          0.00600000	          0.00000000	          0.00000000	          0.00000000	          0.04658300	          0.00000000	         -0.17513400	          0.00000000	          0.00000000	          0.00000000	          0.00000000	          0.00000000	          0.00000000	          0.71568700	          0.00000000	         -0.22751500	          0.00000000	          0.00000000	          0.00000000	
          0.00650000	          0.00000000	          0.00000000	          0.00000000	          0.04658300	          0.00000000	         -0.17513400	          0.00000000	          0.00000000	          0.00000000	          0.00000000	          0.00000000	          0.00000000	          0.71568700	          0.00000000	         -0.22751500	          0.00000000	          0.00000000	          0.00000000	
          0.00700000	          0.00000000	          0.00000000	          0.00000000	          0.04658300	          0.00000000	         -0.17513400	          0.00000000	          0.00000000	          0.00000000	          0.00000000	          0.00000000	          0.00000000	          0.71568700	          0.00000000	         -0.22751500	          0.00000000	          0.00000000	          0.00000000	
          0.00750000	          0.00000000	          0.00000000	          0.00000000	          0.04658300	          0.00000000	         -0.17513400	          0.00000000	          0.00000000	          0.00000000	          0.00000000	          0.00000000	          0.00000000	          0.71568700	          0.00000000	         -0.22751500	          0.00000000	          0.00000000	          0.00000000	
          0.00800000	          0.00000000	          0.00000000	          0.00000000	          0.04658300	          0.00000000	         -0.17513400	          0.00000000	          0.00000000	          0.00000000	          0.00000000	          0.00000000	          0.00000000	          0.71568700	          0.00000000	         -0.22751500	          0.00000000	          0.00000000	          0.00000000	
          0.00850000	          0.00000000	          0.00000000	          0.00000000	          0.04658300	          0.00000000	         -0.17513400	          0.00000000	          0.00000000	          0.00000000	          0.00000000	          0.00000000	          0.00000000	          0.71568700	          0.00000000	         -0.22751500	          0.00000000	          0.00000000	          0.00000000	
          0.00900000	          0.00000000	          0.00000000	          0.00000000	          0.04658300	          0.00000000	         -0.17513400	          0.00000000	          0.00000000	          0.00000000	          0.00000000	          0.00000000	          0.00000000	          0.71568700	          0.00000000	         -0.22751500	          0.00000000	          0.00000000	          0.00000000	
          0.00950000	          0.00000000	          0.00000000	          0.00000000	          0.04658300	          0.00000000	         -0.17513400	          0.00000000	          0.00000000	          0.00000000	          0.00000000	          0.00000000	          0.00000000	          0.71568700	          0.00000000	         -0.22751500	          0.00000000	          0.00000000	          0.00000000	
          0.01000000	         -1.75742500	         20.15452500	          2.04490000	          0.04658300	          0.00600000	         -0.17513400	          0.00000000	          0.32739700	          0.00000000	          0.00000000	          0.00000000	          0.00000000	          0.71568700	          0.00000000	         -0.22751500	          0.00000000	          0.00000000	          0.00000000	
          0.01050000	         -1.92572600	         21.01698500	          2.05315100	          0.04658300	          0.00600000	         -0.17513400	          0.00000000	          0.32346200	          0.00000000	          0.00000000	          0.00000000	          0.00000000	          0.71568700	          0.00000000	         -0.22751500	          0.00000000	          0.00000000	          0.00000000	
